<svg viewBox="0 0 571 495" fill="none" xmlns="http://www.w3.org/2000/svg"><path d="M107.654 197.352C157.197 197.352 197.359 157.19 197.359 107.647C197.359 58.1039 157.197 17.9414 107.654 17.9414C58.1107 17.9414 17.9482 58.1039 17.9482 107.647C17.9482 157.19 58.1107 197.352 107.654 197.352Z" fill="#64DDFF"/><path fill-rule="evenodd" clip-rule="evenodd" d="M114.533 190.603L125.159 211.855C127.058 215.653 125.519 220.271 121.72 222.171C120.653 222.704 119.476 222.982 118.282 222.982H97.0299C92.7833 222.982 89.3408 219.54 89.3408 215.293C89.3408 214.1 89.6187 212.922 90.1526 211.855L100.779 190.603C102.678 186.804 107.296 185.265 111.094 187.164C112.583 187.908 113.789 189.115 114.533 190.603Z" fill="#64DDFF"/><path d="M76.0619 56.3877C62.9489 63.2224 55.6919 73.7928 54.291 88.099" stroke="#C1F1FF" stroke-width="20.5041" stroke-linecap="round" stroke-linejoin="round"/><path d="M120.903 170.429C146.847 162.32 163.651 145.244 171.316 119.203" stroke="#39D1FC" stroke-width="20.5041" stroke-linecap="round" stroke-linejoin="round"/><path d="M376.75 228.109C426.293 228.109 466.456 187.947 466.456 138.404C466.456 88.8607 426.293 48.6982 376.75 48.6982C327.207 48.6982 287.045 88.8607 287.045 138.404C287.045 187.947 327.207 228.109 376.75 228.109Z" fill="#FFDF28"/><path d="M387.436 201.184C413.379 193.074 430.183 175.999 437.848 149.958" stroke="#FFC800" stroke-width="20.5041" stroke-linecap="round" stroke-linejoin="round"/><path d="M345.158 94.833C332.045 101.668 324.788 112.238 323.387 126.544" stroke="#FFF19E" stroke-width="20.5041" stroke-linecap="round" stroke-linejoin="round"/><path fill-rule="evenodd" clip-rule="evenodd" d="M383.627 221.361L394.253 242.613C396.152 246.412 394.612 251.03 390.814 252.929C389.747 253.463 388.569 253.741 387.376 253.741H366.124C361.877 253.741 358.435 250.299 358.435 246.052C358.435 244.858 358.712 243.681 359.246 242.613L369.872 221.361C371.771 217.563 376.39 216.024 380.188 217.923C381.676 218.667 382.883 219.873 383.627 221.361Z" fill="#FFDF28"/><path d="M461.324 179.411C510.867 179.411 551.029 139.248 551.029 89.7055C551.029 40.1625 510.867 0 461.324 0C411.781 0 371.618 40.1625 371.618 89.7055C371.618 139.248 411.781 179.411 461.324 179.411Z" fill="#FF4B4B"/><path fill-rule="evenodd" clip-rule="evenodd" d="M473.329 172.658L483.955 193.91C485.854 197.709 484.315 202.327 480.516 204.226C479.449 204.76 478.271 205.038 477.078 205.038H455.826C451.579 205.038 448.137 201.595 448.137 197.349C448.137 196.155 448.415 194.978 448.948 193.91L459.574 172.658C461.474 168.86 466.092 167.321 469.89 169.22C471.378 169.964 472.585 171.17 473.329 172.658Z" fill="#FF6246"/><path d="M432.296 38.4414C419.183 45.2761 411.926 55.8466 410.525 70.1528" stroke="#FF9D9D" stroke-width="20.5041" stroke-linecap="round" stroke-linejoin="round"/><path fill-rule="evenodd" clip-rule="evenodd" d="M244.76 253.312C283.687 253.312 315.243 284.868 315.243 323.794V463.752C315.243 480.823 301.404 494.662 284.333 494.662H205.187C188.116 494.662 174.277 480.823 174.277 463.752V323.794C174.277 284.868 205.834 253.312 244.76 253.312Z" fill="#D2E4E8"/><path fill-rule="evenodd" clip-rule="evenodd" d="M292.951 287.792C300.474 297.836 304.929 310.31 304.929 323.825V456.845C304.929 472.019 292.628 484.32 277.454 484.32H212.068C196.894 484.32 184.593 472.019 184.593 456.845V323.825C184.593 310.31 189.049 297.836 196.571 287.792H292.951Z" fill="#905331"/><mask id="mask0" mask-type="alpha" maskUnits="userSpaceOnUse" x="174" y="325" width="142" height="108"><path d="M315.243 325.717H174.277V432.601H315.243V325.717Z" fill="white"/></mask><g mask="url(#mask0)"><path d="M315.243 325.717H174.277V432.601H315.243V325.717Z" fill="#47D7FF"/><path fill-rule="evenodd" clip-rule="evenodd" d="M193.032 315.353C229.502 350.112 217.518 366.941 200.374 385.982C188.944 398.677 190.212 418.798 204.176 446.346H253.217C224.262 421.826 214.593 402.218 224.21 387.523C238.636 365.48 263.489 344.977 226.647 313.479C203.958 311.944 200.054 310.254 193.032 315.353Z" fill="white"/></g><path d="M260.244 211.938H229.278C223.588 211.938 218.975 216.55 218.975 222.241V260.248C218.975 265.938 223.588 270.551 229.278 270.551H260.244C265.934 270.551 270.547 265.938 270.547 260.248V222.241C270.547 216.55 265.934 211.938 260.244 211.938Z" fill="#D2E4E8"/><path fill-rule="evenodd" clip-rule="evenodd" d="M229.278 205.043H260.244C265.934 205.043 270.547 209.656 270.547 215.346V236.074H218.975V215.346C218.975 209.656 223.588 205.043 229.278 205.043Z" fill="#47D7FF"/><path d="M270.552 232.627H218.965C215.171 232.627 212.096 235.702 212.096 239.496V239.55C212.096 243.343 215.171 246.418 218.965 246.418H270.552C274.346 246.418 277.421 243.343 277.421 239.55V239.496C277.421 235.702 274.346 232.627 270.552 232.627Z" fill="#D2E4E8"/><path d="M224.822 278.823C215.255 283.444 208.113 291.722 203.395 303.657" stroke="white" stroke-width="17.1722" stroke-linecap="round" stroke-linejoin="round"/><path d="M61.4278 153.077L51.7561 144.669C48.5512 141.883 43.6946 142.223 40.9087 145.428L22.4123 166.706C19.6263 169.911 19.9659 174.767 23.1708 177.553L32.8425 185.961C36.0474 188.746 40.9039 188.407 43.6899 185.202L62.1863 163.924C64.9723 160.719 64.6327 155.863 61.4278 153.077Z" fill="#FF6767"/><path fill-rule="evenodd" clip-rule="evenodd" d="M302.142 346.008H410.36C417.438 346.008 423.175 351.745 423.175 358.823C423.175 359.519 423.118 360.214 423.006 360.901L402.793 483.925C401.775 490.118 396.423 494.663 390.147 494.663H322.355C316.08 494.663 310.727 490.118 309.71 483.925L289.497 360.901C288.349 353.917 293.081 347.325 300.065 346.177C300.751 346.065 301.446 346.008 302.142 346.008Z" fill="#FF4B4B"/><path d="M424.171 346.008H288.331C284.793 346.008 281.924 348.877 281.924 352.415C281.924 355.954 284.793 358.823 288.331 358.823H424.171C427.71 358.823 430.579 355.954 430.579 352.415C430.579 348.877 427.71 346.008 424.171 346.008Z" fill="#BCD2D7"/><path fill-rule="evenodd" clip-rule="evenodd" d="M298.943 399.831H413.561C417.448 399.831 420.598 402.982 420.598 406.868C420.598 407.522 420.507 408.173 420.327 408.802L419.623 411.266C418.523 415.117 415.003 417.772 410.998 417.772H301.506C297.501 417.772 293.981 415.117 292.881 411.266L292.177 408.802C291.109 405.065 293.273 401.17 297.01 400.102C297.639 399.922 298.289 399.831 298.943 399.831Z" fill="#EE4040"/><path fill-rule="evenodd" clip-rule="evenodd" d="M304.068 430.587H408.434C412.321 430.587 415.471 433.738 415.471 437.624C415.471 438.278 415.38 438.929 415.2 439.557L414.496 442.022C413.396 445.873 409.876 448.528 405.871 448.528H306.631C302.626 448.528 299.106 445.873 298.006 442.022L297.302 439.557C296.234 435.82 298.398 431.925 302.135 430.858C302.764 430.678 303.414 430.587 304.068 430.587Z" fill="#EE4040"/><path d="M5.81247 285.131L15.4841 276.723C18.689 273.937 23.5456 274.277 26.3316 277.482L44.8279 298.759C47.6139 301.964 47.2743 306.821 44.0694 309.607L34.3978 318.014C31.1929 320.8 26.3363 320.461 23.5503 317.256L5.05394 295.978C2.26796 292.773 2.60757 287.917 5.81247 285.131Z" fill="#FFDF28"/><path d="M192.912 23.7039L202.584 15.2964C205.789 12.5104 210.645 12.85 213.431 16.0549L231.928 37.3326C234.714 40.5375 234.374 45.3941 231.169 48.18L221.497 56.5875C218.292 59.3735 213.436 59.0338 210.65 55.8289L192.154 34.5513C189.368 31.3464 189.707 26.4898 192.912 23.7039Z" fill="#FF9600"/><path d="M548.955 23.7039L539.283 15.2964C536.078 12.5104 531.221 12.85 528.436 16.0549L509.939 37.3326C507.153 40.5375 507.493 45.3941 510.698 48.18L520.369 56.5875C523.574 59.3735 528.431 59.0338 531.217 55.8289L549.713 34.5513C552.499 31.3464 552.16 26.4898 548.955 23.7039Z" fill="#CE82FF"/><path d="M526.074 197.989L535.746 189.582C538.951 186.796 543.807 187.135 546.593 190.34L565.09 211.618C567.876 214.823 567.536 219.679 564.331 222.465L554.659 230.873C551.455 233.659 546.598 233.319 543.812 230.114L525.316 208.836C522.53 205.632 522.869 200.775 526.074 197.989Z" fill="#FFDF28"/><path d="M498.654 247.275L488.983 238.868C485.778 236.082 480.921 236.421 478.135 239.626L459.639 260.904C456.853 264.109 457.192 268.965 460.397 271.751L470.069 280.159C473.274 282.945 478.131 282.605 480.916 279.4L499.413 258.123C502.199 254.918 501.859 250.061 498.654 247.275Z" fill="#FF9600"/><path d="M146.575 377.4L136.904 368.993C133.699 366.207 128.842 366.546 126.056 369.751L107.56 391.029C104.774 394.234 105.113 399.09 108.318 401.876L117.99 410.284C121.195 413.07 126.051 412.73 128.837 409.525L147.334 388.248C150.12 385.043 149.78 380.186 146.575 377.4Z" fill="#CE82FF"/><path d="M474.57 149.923C500.514 141.813 517.318 124.737 524.983 98.6961" stroke="#F04E4F" stroke-width="20.5041" stroke-linecap="round" stroke-linejoin="round"/></svg>